<?xml version="1.0" standalone="no"?>
<!DOCTYPE svg PUBLIC "-//W3C//DTD SVG 20010904//EN"
 "http://www.w3.org/TR/2001/REC-SVG-20010904/DTD/svg10.dtd">
<svg version="1.0" xmlns="http://www.w3.org/2000/svg"
 width="348.000000pt" height="348.000000pt" viewBox="0 0 348.000000 348.000000"
 preserveAspectRatio="xMidYMid meet">
<metadata>
Created by potrace 1.11, written by Peter Selinger 2001-2013
</metadata>
<g transform="translate(0.000000,348.000000) scale(0.100000,-0.100000)"
fill="#000000" stroke="none">
<path d="M1685 3050 c-49 -15 -1017 -579 -1053 -613 -61 -59 -62 -68 -62 -702
0 -632 0 -632 63 -693 26 -26 875 -525 1004 -590 54 -28 103 -35 149 -23 52
14 1020 574 1062 614 61 59 62 68 62 702 0 632 0 632 -63 693 -27 26 -875 525
-1006 591 -49 25 -114 34 -156 21z m689 -856 c3 -9 6 -204 6 -435 l0 -419 40
0 c40 0 40 0 40 -37 0 -73 57 -68 -716 -69 -579 0 -699 2 -710 14 -8 7 -14 31
-14 53 0 39 0 39 40 39 l40 0 0 419 c0 231 3 426 6 435 6 14 71 16 634 16 563
0 628 -2 634 -16z"/>
<path d="M1130 2169 c0 -19 1 -19 16 -5 19 19 26 20 42 4 31 -31 -2 -73 -39
-49 -18 11 -19 -1 -19 -379 l0 -390 610 0 610 0 0 420 0 420 -610 0 -610 0 0
-21z m138 2 c8 -4 12 -19 10 -32 -2 -18 -9 -24 -28 -24 -28 0 -39 27 -20 50
14 17 20 18 38 6z m102 -21 c0 -24 -15 -40 -36 -40 -13 0 -24 2 -24 4 0 2 -3
11 -6 19 -9 23 24 49 47 37 10 -6 19 -15 19 -20z m587 -229 c34 -51 32 -114
-6 -152 -25 -24 -37 -29 -80 -29 l-51 0 0 -58 c0 -64 -6 -78 -27 -61 -10 9
-13 50 -13 176 l0 164 77 -3 c75 -3 78 -4 100 -37z m-298 -132 c28 -30 36 -85
16 -115 -19 -29 -56 -40 -84 -24 -20 10 -21 8 -21 -25 0 -25 -4 -35 -12 -33
-9 3 -14 36 -16 109 l-3 104 51 2 c39 2 54 -2 69 -18z"/>
<path d="M1240 2140 c0 -5 5 -10 10 -10 6 0 10 5 10 10 0 6 -4 10 -10 10 -5 0
-10 -4 -10 -10z"/>
<path d="M1820 1855 l0 -65 48 0 c59 0 72 12 72 65 0 53 -13 65 -72 65 l-48 0
0 -65z"/>
<path d="M1590 1750 c-11 -11 -20 -27 -20 -35 0 -22 36 -38 60 -25 25 13 28
65 4 74 -22 8 -22 8 -44 -14z"/>
<path d="M1160 2139 c0 -5 5 -7 10 -4 6 3 10 8 10 11 0 2 -4 4 -10 4 -5 0 -10
-5 -10 -11z"/>
<path d="M1045 1300 c3 -5 15 -10 25 -10 10 0 22 5 25 10 4 6 -7 10 -25 10
-18 0 -29 -4 -25 -10z"/>
<path d="M2385 1300 c3 -5 15 -10 25 -10 10 0 22 5 25 10 4 6 -7 10 -25 10
-18 0 -29 -4 -25 -10z"/>
<path d="M1050 1260 c0 -7 237 -10 690 -10 453 0 690 3 690 10 0 7 -237 10
-690 10 -453 0 -690 -3 -690 -10z"/>
</g>
</svg>
